Coordinates
version=1
nRows=42
nColumns=38
inDegrees=no

Units are S.I. units (second, meters, Newtons, ...)
If the header above contains a line with 'inDegrees', this indicates whether rotational values are in degrees (yes) or radians (no).

endheader
time	pelvis_tilt	pelvis_list	pelvis_rotation	pelvis_tx	pelvis_ty	pelvis_tz	hip_flexion_r	hip_adduction_r	hip_rotation_r	knee_angle_r	ankle_angle_r	subtalar_angle_r	mtp_angle_r	hip_flexion_l	hip_adduction_l	hip_rotation_l	knee_angle_l	ankle_angle_l	subtalar_angle_l	mtp_angle_l	lumbar_extension	lumbar_bending	lumbar_rotation	arm_flex_r	arm_add_r	arm_rot_r	elbow_flex_r	pro_sup_r	wrist_flex_r	wrist_dev_r	arm_flex_l	arm_add_l	arm_rot_l	elbow_flex_l	pro_sup_l	wrist_flex_l	wrist_dev_l
20	0.555424	1.47446	1.18839	0.660094	0.881439	1.04909	0.00341483	-0.0268025	-0.396922	0.128393	-0.375044	0	0	0.00840213	-0.12458	-0.197668	0.0407884	-0.524474	0	0	0.137873	0.0738214	-0.369233	0.111359	-0.214477	0.247591	0	1.5708	0	0	-0.283268	-0.269748	0.234937	0.695525	1.22911	0	0
20.01	0.55545	1.47458	1.18912	0.660268	0.8814	1.04916	0.00364203	-0.0266585	-0.396912	0.129081	-0.373942	0	0	0.0089349	-0.124709	-0.198596	0.0417365	-0.523887	0	0	0.139476	0.0737929	-0.367002	0.106479	-0.216576	0.268648	0	1.5708	0	0	-0.280606	-0.272797	0.24738	0.694172	1.22052	0	0
20.02	0.56231	1.47504	1.18301	0.660368	0.881288	1.04924	0.00341283	-0.026087	-0.396475	0.129845	-0.374894	0	0	0.00866214	-0.125263	-0.19893	0.0421161	-0.524658	0	0	0.13754	0.0746252	-0.36934	0.111821	-0.216233	0.248161	0	1.5708	0	0	-0.282886	-0.26943	0.234409	0.695971	1.22857	0	0
20.03	0.566167	1.47542	1.1798	0.660521	0.881217	1.04928	0.00350139	-0.0258295	-0.396301	0.130964	-0.37527	0	0	0.00846279	-0.125628	-0.198969	0.0423376	-0.525154	0	0	0.135879	0.0750146	-0.369675	0.114423	-0.216391	0.233618	0	1.5708	0	0	-0.284395	-0.266822	0.223204	0.698274	1.23653	0	0
20.04	0.570597	1.4758	1.17597	0.660721	0.88113	1.04931	0.00364281	-0.0255645	-0.395664	0.132269	-0.375216	0	0	0.00843026	-0.12617	-0.198973	0.0429973	-0.52531	0	0	0.134476	0.0754549	-0.369454	0.116123	-0.216865	0.223732	0	1.5708	0	0	-0.285267	-0.264656	0.213691	0.700041	1.24426	0	0
20.05	0.575774	1.47625	1.17145	0.660942	0.881002	1.04937	0.003614	-0.0251772	-0.394129	0.133377	-0.374926	0	0	0.00835983	-0.126881	-0.198682	0.0437573	-0.525243	0	0	0.133097	0.0759689	-0.369239	0.117546	-0.217422	0.216796	0	1.5708	0	0	-0.285625	-0.262777	0.205454	0.701219	1.25141	0	0
20.06	0.579308	1.47687	1.1684	0.661153	0.880852	1.04943	0.0035359	-0.0250447	-0.393347	0.134506	-0.374507	0	0	0.00798491	-0.127303	-0.198297	0.0441465	-0.525169	0	0	0.131595	0.0763375	-0.369031	0.119085	-0.21796	0.211505	0	1.5708	0	0	-0.285904	-0.261133	0.198053	0.702415	1.25773	0	0
20.07	0.660261	1.4788	1.08973	0.660932	0.880637	1.05058	-0.0014287	-0.0127467	-0.397924	0.134212	-0.374022	0	0	0.00298277	-0.13379	-0.196672	0.0435303	-0.526474	0	0	0.124493	0.0849147	-0.369071	0.121652	-0.22119	0.205075	0	1.5708	0	0	-0.278694	-0.255393	0.192378	0.695206	1.26691	0	0
20.08	0.667418	1.47888	1.083	0.661057	0.880533	1.05058	-0.00135963	-0.0123322	-0.398687	0.135451	-0.373884	0	0	0.0027182	-0.13455	-0.19623	0.0433272	-0.526828	0	0	0.123634	0.0861722	-0.36855	0.12278	-0.222384	0.202941	0	1.5708	0	0	-0.278139	-0.253866	0.188036	0.695573	1.2722	0	0
20.09	0.668823	1.47855	1.08177	0.661234	0.880435	1.05051	-0.000298652	-0.0122766	-0.399649	0.13719	-0.373416	0	0	0.00329694	-0.134991	-0.19604	0.0434483	-0.526895	0	0	0.123445	0.0869156	-0.368267	0.123786	-0.223193	0.201925	0	1.5708	0	0	-0.278467	-0.25275	0.183699	0.696873	1.27677	0	0
20.1	0.670904	1.47811	1.07979	0.661432	0.880331	1.05045	0.00093567	-0.0120431	-0.400117	0.139038	-0.372708	0	0	0.00394718	-0.135556	-0.19577	0.0436793	-0.526772	0	0	0.123337	0.0878464	-0.368171	0.12497	-0.224105	0.201754	0	1.5708	0	0	-0.278901	-0.251746	0.179828	0.698291	1.2808	0	0
20.11	0.674213	1.47773	1.07661	0.661628	0.880183	1.05042	0.00204633	-0.0116455	-0.40011	0.140845	-0.371871	0	0	0.00439814	-0.136225	-0.195359	0.0438316	-0.52663	0	0	0.122998	0.0890729	-0.368199	0.126453	-0.225162	0.202485	0	1.5708	0	0	-0.279039	-0.2509	0.176798	0.699572	1.28467	0	0
20.12	0.676959	1.47765	1.07397	0.661852	0.879986	1.0504	0.0030626	-0.0115571	-0.400785	0.143002	-0.370688	0	0	0.00480371	-0.136797	-0.195056	0.0442502	-0.526422	0	0	0.122178	0.0902321	-0.36843	0.128291	-0.2261	0.204689	0	1.5708	0	0	-0.27919	-0.250065	0.173126	0.70108	1.28966	0	0
20.13	0.67807	1.47788	1.07294	0.662122	0.879744	1.05039	0.00401378	-0.0118308	-0.401924	0.145412	-0.369592	0	0	0.00517043	-0.137033	-0.194846	0.0447467	-0.526272	0	0	0.121069	0.0911918	-0.368673	0.130355	-0.226801	0.20697	0	1.5708	0	0	-0.279156	-0.249897	0.170932	0.702801	1.29312	0	0
20.14	0.677938	1.47823	1.07305	0.662428	0.879426	1.0504	0.0050838	-0.0122468	-0.402951	0.147888	-0.368573	0	0	0.0054444	-0.136954	-0.194456	0.0450263	-0.526178	0	0	0.119713	0.0919783	-0.368741	0.132639	-0.227299	0.208819	0	1.5708	0	0	-0.27883	-0.25029	0.169737	0.704625	1.29556	0	0
20.15	0.678181	1.47804	1.07256	0.662717	0.879094	1.05041	0.00674404	-0.0123399	-0.403581	0.150441	-0.367495	0	0	0.00596183	-0.137268	-0.193946	0.045257	-0.526065	0	0	0.11866	0.0931303	-0.368538	0.134769	-0.227831	0.210526	0	1.5708	0	0	-0.278316	-0.250588	0.168741	0.7063	1.29777	0	0
20.16	0.678011	1.47581	1.07184	0.66283	0.878921	1.05028	0.0104754	-0.0116755	-0.40391	0.153571	-0.366107	0	0	0.00833088	-0.13859	-0.194492	0.0458768	-0.525611	0	0	0.119719	0.0957191	-0.368238	0.136378	-0.22923	0.212151	0	1.5708	0	0	-0.278406	-0.249443	0.166816	0.707546	1.30119	0	0
20.17	0.674554	1.47414	1.07439	0.663023	0.878726	1.05019	0.0139632	-0.0114964	-0.404255	0.156689	-0.364989	0	0	0.010542	-0.139357	-0.195544	0.046783	-0.525187	0	0	0.120435	0.0976712	-0.367825	0.138003	-0.230063	0.213407	0	1.5708	0	0	-0.278266	-0.24873	0.165114	0.708468	1.30452	0	0
20.18	0.66999	1.47319	1.07797	0.663252	0.878492	1.05015	0.0171528	-0.0119249	-0.405123	0.160385	-0.363739	0	0	0.0122067	-0.139565	-0.197093	0.0477381	-0.524784	0	0	0.120401	0.0992917	-0.367431	0.139996	-0.230737	0.214667	0	1.5708	0	0	-0.278067	-0.248379	0.163372	0.709685	1.30861	0	0
20.19	0.663757	1.47286	1.08339	0.663525	0.878232	1.05015	0.0200143	-0.0128807	-0.406237	0.164411	-0.362319	0	0	0.0132426	-0.139277	-0.198127	0.0483286	-0.524509	0	0	0.119889	0.100371	-0.367013	0.141996	-0.231185	0.215771	0	1.5708	0	0	-0.278073	-0.24846	0.16119	0.711572	1.31368	0	0
20.2	0.658058	1.47262	1.08828	0.663828	0.877876	1.05018	0.0230183	-0.0137535	-0.406964	0.168686	-0.36079	0	0	0.0146487	-0.13899	-0.198319	0.0493728	-0.524313	0	0	0.118964	0.101621	-0.366607	0.14435	-0.231497	0.216824	0	1.5708	0	0	-0.277617	-0.248458	0.158379	0.713035	1.31979	0	0
20.21	0.652538	1.47245	1.09272	0.664203	0.877466	1.05022	0.0260594	-0.0145908	-0.40778	0.173222	-0.359191	0	0	0.0160739	-0.138556	-0.197606	0.0504682	-0.524043	0	0	0.117764	0.102905	-0.365884	0.146815	-0.231516	0.218121	0	1.5708	0	0	-0.277188	-0.248365	0.154579	0.714703	1.32694	0	0
20.22	0.64706	1.47267	1.09706	0.66458	0.877047	1.0503	0.0290006	-0.0156938	-0.408713	0.178421	-0.357213	0	0	0.0171519	-0.138108	-0.196741	0.0519758	-0.523628	0	0	0.116036	0.104104	-0.365127	0.149589	-0.231468	0.219182	0	1.5708	0	0	-0.277116	-0.24768	0.148367	0.716946	1.33612	0	0
20.23	0.638793	1.47285	1.10504	0.664814	0.876477	1.05039	0.0322424	-0.0172018	-0.409182	0.183771	-0.35541	0	0	0.0191803	-0.137532	-0.198557	0.0543777	-0.52356	0	0	0.114173	0.105316	-0.364982	0.152643	-0.231559	0.220127	0	1.5708	0	0	-0.276422	-0.246769	0.14189	0.719082	1.34409	0	0
20.24	0.633391	1.47322	1.10971	0.66507	0.87594	1.05053	0.0349796	-0.0183991	-0.40958	0.188463	-0.35374	0	0	0.0207646	-0.136844	-0.200547	0.0567107	-0.523483	0	0	0.111915	0.107009	-0.364734	0.156044	-0.231791	0.22171	0	1.5708	0	0	-0.276045	-0.245262	0.134002	0.721609	1.35202	0	0
20.25	0.632709	1.47375	1.10897	0.665287	0.875474	1.05062	0.0381896	-0.0197151	-0.412904	0.195439	-0.348974	0	0	0.0217939	-0.136417	-0.202997	0.0593615	-0.521973	0	0	0.105234	0.109346	-0.370492	0.165331	-0.230269	0.231772	0	1.5708	0	0	-0.28459	-0.223785	0.059818	0.728589	1.42168	0	0
20.26	0.619016	1.47429	1.12253	0.665545	0.874665	1.05086	0.0412009	-0.0214763	-0.411734	0.198642	-0.351087	0	0	0.0245692	-0.134937	-0.205605	0.0627169	-0.522959	0	0	0.106396	0.110543	-0.364603	0.164087	-0.232019	0.225466	0	1.5708	0	0	-0.274641	-0.241902	0.117377	0.726435	1.36581	0	0
20.27	0.605532	1.47435	1.13532	0.665742	0.873926	1.05097	0.0454803	-0.0235012	-0.411549	0.204521	-0.349603	0	0	0.0278744	-0.133847	-0.209466	0.0670707	-0.522425	0	0	0.104125	0.112269	-0.364912	0.16839	-0.232152	0.227335	0	1.5708	0	0	-0.273931	-0.240246	0.109425	0.728914	1.37156	0	0
20.28	0.592004	1.47365	1.14726	0.665934	0.873313	1.05094	0.0512001	-0.0255796	-0.411733	0.212672	-0.343563	0	0	0.0318175	-0.133187	-0.214544	0.0722032	-0.519351	0	0	0.0992341	0.11457	-0.370801	0.177612	-0.230736	0.237771	0	1.5708	0	0	-0.28187	-0.220818	0.0436071	0.736174	1.43	0	0
20.29	0.580288	1.47438	1.1582	0.666231	0.872528	1.05118	0.0540638	-0.0271262	-0.408886	0.21596	-0.346171	0	0	0.0337422	-0.131475	-0.213988	0.0746242	-0.520707	0	0	0.099369	0.116589	-0.364982	0.177161	-0.232862	0.231666	0	1.5708	0	0	-0.272775	-0.236698	0.093933	0.734603	1.3819	0	0
20.3	0.566894	1.4738	1.17017	0.666387	0.871827	1.05112	0.0597164	-0.0292331	-0.408905	0.22393	-0.339477	0	0	0.0378906	-0.130419	-0.218423	0.0798838	-0.517015	0	0	0.0944359	0.119208	-0.369871	0.185911	-0.232021	0.241618	0	1.5708	0	0	-0.278881	-0.220578	0.0396494	0.742	1.42985	0	0
20.31	0.551616	1.47414	1.18467	0.66661	0.870979	1.05126	0.0634658	-0.0311193	-0.40669	0.227976	-0.342231	0	0	0.041012	-0.128479	-0.21863	0.0834366	-0.518416	0	0	0.0942529	0.121489	-0.36479	0.186545	-0.234405	0.23625	0	1.5708	0	0	-0.271046	-0.233727	0.0810029	0.74154	1.39164	0	0
20.32	0.535229	1.4736	1.20002	0.666795	0.870165	1.05124	0.0689301	-0.0332407	-0.405955	0.234701	-0.340033	0	0	0.0458038	-0.127134	-0.22166	0.0891101	-0.517023	0	0	0.0919357	0.124215	-0.364932	0.191526	-0.235346	0.238769	0	1.5708	0	0	-0.270297	-0.232727	0.0759958	0.745318	1.39639	0	0
20.33	0.517764	1.47288	1.21672	0.666975	0.869331	1.05119	0.0749777	-0.0355495	-0.405739	0.242266	-0.337689	0	0	0.0513603	-0.125899	-0.224863	0.0956988	-0.515488	0	0	0.089695	0.126894	-0.365239	0.196302	-0.236158	0.241366	0	1.5708	0	0	-0.269551	-0.231905	0.0716512	0.749231	1.40046	0	0
20.34	0.496414	1.47214	1.23722	0.667126	0.868439	1.05117	0.0813952	-0.0383909	-0.405254	0.250112	-0.335246	0	0	0.0573807	-0.124333	-0.227829	0.102876	-0.513877	0	0	0.087262	0.129432	-0.365345	0.201224	-0.237071	0.244176	0	1.5708	0	0	-0.268463	-0.231178	0.0680416	0.753227	1.40394	0	0
20.35	0.472793	1.4715	1.25898	0.667273	0.867438	1.05116	0.0882816	-0.0416279	-0.403295	0.258496	-0.332729	0	0	0.0634562	-0.122489	-0.231488	0.110443	-0.512257	0	0	0.0840898	0.132445	-0.364486	0.207143	-0.238506	0.24746	0	1.5708	0	0	-0.266618	-0.23032	0.0654024	0.757086	1.40679	0	0
20.36	0.451134	1.47141	1.27698	0.667504	0.866252	1.05116	0.0953963	-0.0448475	-0.398691	0.267816	-0.329631	0	0	0.0693313	-0.120665	-0.238498	0.119224	-0.510083	0	0	0.0791174	0.136012	-0.361668	0.214165	-0.239917	0.251632	0	1.5708	0	0	-0.264176	-0.229438	0.062819	0.761763	1.40939	0	0
20.37	0.430272	1.47056	1.29463	0.667731	0.865083	1.05111	0.102955	-0.0480156	-0.393077	0.277136	-0.326676	0	0	0.076591	-0.119326	-0.245762	0.129275	-0.507577	0	0	0.0746962	0.139965	-0.359086	0.220858	-0.241426	0.255841	0	1.5708	0	0	-0.261706	-0.228775	0.06134	0.766382	1.41133	0	0
20.38	0.407784	1.46898	1.31469	0.667926	0.863955	1.05097	0.111364	-0.050507	-0.390547	0.285133	-0.324484	0	0	0.0849992	-0.118064	-0.251517	0.139935	-0.505093	0	0	0.0711682	0.144079	-0.357303	0.227514	-0.243122	0.259302	0	1.5708	0	0	-0.259329	-0.228308	0.0611041	0.770757	1.41248	0	0
20.39	0.386107	1.46674	1.33407	0.668093	0.862804	1.05077	0.120405	-0.0537144	-0.386938	0.294978	-0.322045	0	0	0.0944765	-0.116935	-0.256263	0.151364	-0.502089	0	0	0.0680756	0.148703	-0.355837	0.2344	-0.244941	0.262847	0	1.5708	0	0	-0.257122	-0.227923	0.0616469	0.775559	1.41352	0	0
20.4	0.366731	1.46399	1.35072	0.668332	0.861608	1.05046	0.13023	-0.0561273	-0.38418	0.304488	-0.318969	0	0	0.104742	-0.116092	-0.26091	0.163395	-0.498011	0	0	0.065152	0.153623	-0.35374	0.241161	-0.246796	0.26722	0	1.5708	0	0	-0.25524	-0.227738	0.0623986	0.781128	1.41441	0	0
20.41	0.347695	1.46092	1.36696	0.66851	0.860293	1.05005	0.140354	-0.0586397	-0.381458	0.313826	-0.315938	0	0	0.115935	-0.115442	-0.265708	0.17659	-0.493637	0	0	0.0620182	0.158807	-0.351443	0.24834	-0.248876	0.271522	0	1.5708	0	0	-0.253184	-0.227504	0.0634113	0.787141	1.41548	0	0
